<svg width="162" height="32" viewBox="0 0 162 32" fill="none" xmlns="http://www.w3.org/2000/svg">
<path d="M3.66699 0C4.58732 0.000176887 5.33301 0.746627 5.33301 1.66699V13.333H5.33105V23.333C5.33105 25.174 6.82311 26.667 8.66406 26.667H23.3311C25.1719 26.6668 26.6641 25.1738 26.6641 23.333V8.66699C26.6641 6.82615 25.1719 5.33319 23.3311 5.33301H12.3359C11.4156 5.33301 10.6691 4.58732 10.6689 3.66699V1.66699C10.6689 0.746518 11.4155 4.02352e-08 12.3359 0H25.333C29.0149 0 32 2.98509 32 6.66699V25.333C32 29.0149 29.0149 32 25.333 32H6.66699C2.98509 32 0 29.0149 0 25.333V1.66699C0 0.746518 0.746518 0 1.66699 0H3.66699Z" fill="#2D2A1E"/>
<path d="M19.6689 10.667C20.5893 10.667 21.3358 11.4127 21.3359 12.333V19.667C21.3358 20.5873 20.5893 21.333 19.6689 21.333H12.3359C11.4156 21.333 10.6691 20.5873 10.6689 19.667V12.333C10.6691 11.4127 11.4156 10.667 12.3359 10.667H19.6689Z" fill="#2D2A1E"/>
<path d="M48.7094 28.0202C47.0784 28.0202 45.5996 27.6614 44.2731 26.9438C42.9466 26.2262 41.9028 25.2367 41.1417 23.9754C40.3806 22.7141 40 21.3006 40 19.7349C40 18.1474 40.3806 16.7339 41.1417 15.4944C41.9245 14.2331 42.9792 13.2437 44.3057 12.5261C45.6323 11.8084 47.1219 11.4496 48.7746 11.4496C50.0141 11.4496 51.1449 11.6671 52.167 12.102C53.2108 12.5152 54.135 13.1458 54.9396 13.9939L51.743 17.1906C51.3733 16.7774 50.9383 16.473 50.4382 16.2773C49.9598 16.0816 49.4052 15.9837 48.7746 15.9837C48.057 15.9837 47.4155 16.1468 46.8501 16.473C46.3064 16.7774 45.8715 17.2124 45.5453 17.7778C45.2408 18.3214 45.0886 18.9629 45.0886 19.7023C45.0886 20.4417 45.2408 21.0941 45.5453 21.6595C45.8715 22.2249 46.3173 22.6707 46.8827 22.9968C47.4481 23.323 48.0787 23.4861 48.7746 23.4861C49.427 23.4861 50.0033 23.3774 50.5034 23.1599C51.0253 22.9207 51.4711 22.5945 51.8408 22.1814L55.0049 25.3781C54.1785 26.2479 53.2434 26.9112 52.1996 27.3678C51.1558 27.8028 49.9924 28.0202 48.7094 28.0202Z" fill="#2D2A1E"/>
<path d="M63.384 27.9876C61.927 27.9876 60.6222 27.6288 59.4696 26.9112C58.3388 26.1935 57.4364 25.215 56.7622 23.9754C56.1099 22.7359 55.7837 21.3224 55.7837 19.7349C55.7837 18.1474 56.1099 16.7339 56.7622 15.4944C57.4364 14.2549 58.3388 13.2763 59.4696 12.5587C60.6222 11.841 61.927 11.4822 63.384 11.4822C64.4495 11.4822 65.4064 11.6888 66.2545 12.102C67.1243 12.5152 67.8311 13.0915 68.3747 13.8308C68.9184 14.5484 69.2228 15.3748 69.2881 16.3099V23.1599C69.2228 24.095 68.9184 24.9323 68.3747 25.6716C67.8528 26.3893 67.1569 26.9547 66.2871 27.3678C65.4172 27.781 64.4495 27.9876 63.384 27.9876ZM64.3952 23.4861C65.4607 23.4861 66.3197 23.1382 66.9721 22.4423C67.6245 21.7247 67.9507 20.8222 67.9507 19.7349C67.9507 18.9955 67.7984 18.3432 67.494 17.7778C67.2113 17.2124 66.7981 16.7774 66.2545 16.473C65.7326 16.1468 65.1237 15.9837 64.4278 15.9837C63.7319 15.9837 63.1121 16.1468 62.5685 16.473C62.0466 16.7774 61.6225 17.2124 61.2963 17.7778C60.9919 18.3432 60.8397 18.9955 60.8397 19.7349C60.8397 20.4525 60.9919 21.0941 61.2963 21.6595C61.6008 22.2249 62.0248 22.6707 62.5685 22.9968C63.1121 23.323 63.721 23.4861 64.3952 23.4861ZM67.7549 27.6614V23.3883L68.5052 19.5392L67.7549 15.6901V11.8084H72.6478V27.6614H67.7549Z" fill="#2D2A1E"/>
<path d="M76.0803 27.6614V11.8084H81.071V27.6614H76.0803ZM81.071 18.9521L78.9834 17.3211C79.3966 15.4727 80.0924 14.0374 81.071 13.0153C82.0496 11.9933 83.4087 11.4822 85.1484 11.4822C85.9095 11.4822 86.5728 11.6018 87.1382 11.841C87.7254 12.0585 88.2364 12.4064 88.6713 12.8849L85.703 16.6361C85.4855 16.3969 85.2137 16.212 84.8875 16.0816C84.5613 15.9511 84.1916 15.8858 83.7784 15.8858C82.9521 15.8858 82.2888 16.1468 81.7886 16.6687C81.3102 17.1689 81.071 17.93 81.071 18.9521Z" fill="#2D2A1E"/>
<path d="M96.2255 27.9876C94.725 27.9876 93.3876 27.6288 92.2133 26.9112C91.0608 26.1935 90.1474 25.215 89.4733 23.9754C88.8209 22.7359 88.4947 21.3224 88.4947 19.7349C88.4947 18.1474 88.8209 16.7339 89.4733 15.4944C90.1474 14.2549 91.0608 13.2763 92.2133 12.5587C93.3876 11.841 94.725 11.4822 96.2255 11.4822C97.3128 11.4822 98.2914 11.6888 99.1612 12.102C100.053 12.5152 100.781 13.0915 101.347 13.8308C101.934 14.5484 102.26 15.3748 102.325 16.3099V22.9968C102.26 23.9319 101.945 24.78 101.379 25.5412C100.814 26.2805 100.085 26.8785 99.1938 27.3352C98.3022 27.7701 97.3128 27.9876 96.2255 27.9876ZM97.1062 23.4861C97.8238 23.4861 98.4436 23.3339 98.9655 23.0295C99.4874 22.7033 99.9006 22.2575 100.205 21.6921C100.509 21.1267 100.662 20.4743 100.662 19.7349C100.662 18.9955 100.509 18.354 100.205 17.8104C99.9223 17.245 99.5092 16.7992 98.9655 16.473C98.4436 16.1468 97.8347 15.9837 97.1388 15.9837C96.4429 15.9837 95.8232 16.1468 95.2795 16.473C94.7576 16.7992 94.3336 17.245 94.0074 17.8104C93.7029 18.3758 93.5507 19.0173 93.5507 19.7349C93.5507 20.4525 93.7029 21.0941 94.0074 21.6595C94.3118 22.2249 94.7359 22.6707 95.2795 22.9968C95.8232 23.323 96.4321 23.4861 97.1062 23.4861ZM105.359 27.6614H100.466V23.3883L101.216 19.5392L100.368 15.6901V3.9798H105.359V27.6614Z" fill="#2D2A1E"/>
<path d="M117.925 27.9876C116.859 27.9876 115.881 27.7701 114.989 27.3352C114.097 26.8785 113.369 26.2805 112.803 25.5412C112.238 24.78 111.912 23.9319 111.825 22.9968V16.3099C111.912 15.3748 112.238 14.5484 112.803 13.8308C113.369 13.0915 114.097 12.5152 114.989 12.102C115.881 11.6888 116.859 11.4822 117.925 11.4822C119.425 11.4822 120.752 11.841 121.904 12.5587C123.079 13.2763 123.992 14.2549 124.644 15.4944C125.318 16.7339 125.655 18.1474 125.655 19.7349C125.655 21.3224 125.318 22.7359 124.644 23.9754C123.992 25.215 123.079 26.1935 121.904 26.9112C120.752 27.6288 119.425 27.9876 117.925 27.9876ZM108.791 27.6614V3.9798H113.782V15.6901L112.967 19.5392L113.717 23.3883V27.6614H108.791ZM117.044 23.4861C117.74 23.4861 118.349 23.323 118.871 22.9968C119.414 22.6707 119.838 22.2249 120.143 21.6595C120.447 21.0941 120.599 20.4525 120.599 19.7349C120.599 18.9955 120.447 18.3432 120.143 17.7778C119.838 17.2124 119.414 16.7774 118.871 16.473C118.349 16.1468 117.74 15.9837 117.044 15.9837C116.348 15.9837 115.728 16.1468 115.185 16.473C114.641 16.7774 114.217 17.2124 113.913 17.7778C113.63 18.3432 113.488 18.9955 113.488 19.7349C113.488 20.4743 113.641 21.1267 113.945 21.6921C114.25 22.2575 114.663 22.7033 115.185 23.0295C115.728 23.3339 116.348 23.4861 117.044 23.4861Z" fill="#2D2A1E"/>
<path d="M135.742 28.0202C134.111 28.0202 132.633 27.6614 131.306 26.9438C130.001 26.2044 128.968 25.2041 128.207 23.9428C127.446 22.6815 127.066 21.268 127.066 19.7023C127.066 18.1366 127.446 16.7339 128.207 15.4944C128.968 14.2549 130.001 13.2763 131.306 12.5587C132.611 11.8193 134.09 11.4496 135.742 11.4496C137.395 11.4496 138.874 11.8084 140.178 12.5261C141.483 13.2437 142.516 14.2331 143.277 15.4944C144.038 16.7339 144.419 18.1366 144.419 19.7023C144.419 21.268 144.038 22.6815 143.277 23.9428C142.516 25.2041 141.483 26.2044 140.178 26.9438C138.874 27.6614 137.395 28.0202 135.742 28.0202ZM135.742 23.4861C136.46 23.4861 137.09 23.3339 137.634 23.0295C138.178 22.7033 138.591 22.2575 138.874 21.6921C139.178 21.1049 139.33 20.4417 139.33 19.7023C139.33 18.9629 139.178 18.3214 138.874 17.7778C138.569 17.2124 138.145 16.7774 137.602 16.473C137.08 16.1468 136.46 15.9837 135.742 15.9837C135.046 15.9837 134.427 16.1468 133.883 16.473C133.339 16.7774 132.915 17.2124 132.611 17.7778C132.306 18.3432 132.154 18.9955 132.154 19.7349C132.154 20.4525 132.306 21.1049 132.611 21.6921C132.915 22.2575 133.339 22.7033 133.883 23.0295C134.427 23.3339 135.046 23.4861 135.742 23.4861Z" fill="#2D2A1E"/>
<path d="M156.226 27.6614L152.41 21.4964L151.334 20.8114L145.103 11.8084H150.942L154.498 17.582L155.541 18.2344L162 27.6614H156.226ZM144.81 27.6614L151.301 18.4301L154.139 21.6268L150.257 27.6614H144.81ZM155.509 20.7787L152.671 17.582L156.259 11.8084H161.674L155.509 20.7787Z" fill="#2D2A1E"/>
</svg>
