<svg width="20" height="20" viewBox="0 0 20 20" fill="none" xmlns="http://www.w3.org/2000/svg">
<path fill-rule="evenodd" clip-rule="evenodd" d="M11.3004 1.04602C11.5035 1.10986 11.6808 1.2368 11.8067 1.40837C11.9326 1.57995 12.0005 1.78721 12.0004 2.00002V7.00002H16.0004C16.1834 6.99994 16.3628 7.05003 16.5192 7.14484C16.6757 7.23965 16.8031 7.37556 16.8876 7.53776C16.9722 7.69996 17.0106 7.88225 16.9988 8.06478C16.9869 8.24732 16.9253 8.4231 16.8204 8.57302L9.82044 18.573C9.69862 18.7476 9.52428 18.8787 9.32278 18.9473C9.12129 19.0159 8.90317 19.0184 8.70014 18.9545C8.49711 18.8906 8.31978 18.7635 8.19394 18.5919C8.06809 18.4202 8.00031 18.2129 8.00044 18V13H4.00045C3.81753 13.0001 3.63809 12.95 3.48166 12.8552C3.32524 12.7604 3.19781 12.6245 3.11325 12.4623C3.0287 12.3001 2.99025 12.1178 3.0021 11.9353C3.01395 11.7527 3.07563 11.5769 3.18045 11.427L10.1804 1.42702C10.3025 1.2528 10.4768 1.12203 10.6782 1.05369C10.8797 0.985356 11.0976 0.983018 11.3004 1.04702" fill="currentColor"/>
</svg>
