<svg width="20" height="20" viewBox="0 0 20 20" fill="none" xmlns="http://www.w3.org/2000/svg">
<path d="M10 12.5C10.663 12.5 11.2989 12.2366 11.7678 11.7678C12.2366 11.2989 12.5 10.663 12.5 10C12.5 9.33696 12.2366 8.70107 11.7678 8.23223C11.2989 7.76339 10.663 7.5 10 7.5C9.33696 7.5 8.70107 7.76339 8.23223 8.23223C7.76339 8.70107 7.5 9.33696 7.5 10C7.5 10.663 7.76339 11.2989 8.23223 11.7678C8.70107 12.2366 9.33696 12.5 10 12.5Z" fill="currentColor"/>
<path fill-rule="evenodd" clip-rule="evenodd" d="M9.99935 18.3333C14.6018 18.3333 18.3327 14.6025 18.3327 9.99996C18.3327 5.39746 14.6018 1.66663 9.99935 1.66663C5.39685 1.66663 1.66602 5.39746 1.66602 9.99996C1.66602 14.6025 5.39685 18.3333 9.99935 18.3333ZM14.9993 9.99996C14.9993 11.326 14.4726 12.5978 13.5349 13.5355C12.5972 14.4732 11.3254 15 9.99935 15C8.67327 15 7.4015 14.4732 6.46382 13.5355C5.52613 12.5978 4.99935 11.326 4.99935 9.99996C4.99935 8.67388 5.52613 7.40211 6.46382 6.46443C7.4015 5.52674 8.67327 4.99996 9.99935 4.99996C11.3254 4.99996 12.5972 5.52674 13.5349 6.46443C14.4726 7.40211 14.9993 8.67388 14.9993 9.99996Z" fill="currentColor"/>
</svg>
